<mxfile host="app.diagrams.net" modified="2022-03-06T14:04:55.163Z" agent="5.0 (Windows NT 10.0; Win64; x64) AppleWebKit/537.36 (KHTML, like Gecko) Chrome/96.0.4664.174 YaBrowser/22.1.4.837 Yowser/2.5 Safari/537.36" etag="qaiZC9e53MP-8C1C0kdf" version="16.6.6" type="github">
  <diagram id="R2lEEEUBdFMjLlhIrx00" name="Page-1">
    <mxGraphModel dx="2746" dy="1052" grid="1" gridSize="10" guides="1" tooltips="1" connect="1" arrows="1" fold="1" page="1" pageScale="1" pageWidth="850" pageHeight="1100" math="0" shadow="0" extFonts="Permanent Marker^https://fonts.googleapis.com/css?family=Permanent+Marker">
      <root>
        <mxCell id="0" />
        <mxCell id="1" parent="0" />
        <mxCell id="dGy5EHXVqikpUVni0W1R-2" value="фильмы" style="swimlane;fillColor=#ffe6cc;strokeColor=#d79b00;" vertex="1" parent="1">
          <mxGeometry x="330" y="400" width="220" height="190" as="geometry" />
        </mxCell>
        <mxCell id="dGy5EHXVqikpUVni0W1R-5" value="&lt;ol&gt;&lt;li&gt;*код фильма(int)&lt;/li&gt;&lt;li&gt;название фильма(varchar)&lt;/li&gt;&lt;li&gt;длительность(float)&lt;/li&gt;&lt;li&gt;код жанра(int)&lt;/li&gt;&lt;li&gt;код темы(int)&lt;/li&gt;&lt;li&gt;год выпуска(int)&lt;/li&gt;&lt;li&gt;код страны(int)&lt;/li&gt;&lt;li&gt;код кинокомпании(int)&lt;/li&gt;&lt;li&gt;описание(varchar)&lt;/li&gt;&lt;li&gt;код режиссёра(int)&lt;/li&gt;&lt;/ol&gt;" style="text;strokeColor=none;fillColor=none;html=1;whiteSpace=wrap;verticalAlign=middle;overflow=hidden;" vertex="1" parent="dGy5EHXVqikpUVni0W1R-2">
          <mxGeometry y="20" width="220" height="170" as="geometry" />
        </mxCell>
        <mxCell id="dGy5EHXVqikpUVni0W1R-101" value="∞" style="text;whiteSpace=wrap;html=1;" vertex="1" parent="dGy5EHXVqikpUVni0W1R-2">
          <mxGeometry x="-20" y="70" width="30" height="30" as="geometry" />
        </mxCell>
        <mxCell id="dGy5EHXVqikpUVni0W1R-13" value="кинокомпании" style="swimlane;fontStyle=0;childLayout=stackLayout;horizontal=1;startSize=30;horizontalStack=0;resizeParent=1;resizeParentMax=0;resizeLast=0;collapsible=1;marginBottom=0;fillColor=#ffe6cc;strokeColor=#d79b00;" vertex="1" parent="1">
          <mxGeometry x="-140" y="370" width="180" height="110" as="geometry" />
        </mxCell>
        <mxCell id="dGy5EHXVqikpUVni0W1R-83" value="&lt;ol&gt;&lt;li&gt;*код кинокомпании(int)&lt;/li&gt;&lt;li&gt;название кинокомпании(varchar)&lt;/li&gt;&lt;/ol&gt;" style="text;strokeColor=none;fillColor=none;html=1;whiteSpace=wrap;verticalAlign=middle;overflow=hidden;" vertex="1" parent="dGy5EHXVqikpUVni0W1R-13">
          <mxGeometry y="30" width="180" height="80" as="geometry" />
        </mxCell>
        <mxCell id="dGy5EHXVqikpUVni0W1R-17" value="темы" style="swimlane;fontStyle=0;childLayout=stackLayout;horizontal=1;startSize=30;horizontalStack=0;resizeParent=1;resizeParentMax=0;resizeLast=0;collapsible=1;marginBottom=0;fillColor=#ffe6cc;strokeColor=#d79b00;" vertex="1" parent="1">
          <mxGeometry x="-90" y="180" width="180" height="110" as="geometry" />
        </mxCell>
        <mxCell id="dGy5EHXVqikpUVni0W1R-69" value="&lt;ol&gt;&lt;li&gt;*код темы(int)&lt;/li&gt;&lt;li&gt;название темы(varchar)&lt;/li&gt;&lt;/ol&gt;" style="text;strokeColor=none;fillColor=none;html=1;whiteSpace=wrap;verticalAlign=middle;overflow=hidden;" vertex="1" parent="dGy5EHXVqikpUVni0W1R-17">
          <mxGeometry y="30" width="180" height="80" as="geometry" />
        </mxCell>
        <mxCell id="dGy5EHXVqikpUVni0W1R-21" value="жанры" style="swimlane;fontStyle=0;childLayout=stackLayout;horizontal=1;startSize=30;horizontalStack=0;resizeParent=1;resizeParentMax=0;resizeLast=0;collapsible=1;marginBottom=0;fillColor=#ffe6cc;strokeColor=#d79b00;" vertex="1" parent="1">
          <mxGeometry x="700" y="440" width="200" height="110" as="geometry" />
        </mxCell>
        <mxCell id="dGy5EHXVqikpUVni0W1R-76" value="&lt;ol&gt;&lt;li&gt;*код жанра(int)&lt;/li&gt;&lt;li&gt;название жанра(varchar)&lt;/li&gt;&lt;/ol&gt;" style="text;strokeColor=none;fillColor=none;html=1;whiteSpace=wrap;verticalAlign=middle;overflow=hidden;" vertex="1" parent="dGy5EHXVqikpUVni0W1R-21">
          <mxGeometry y="30" width="200" height="80" as="geometry" />
        </mxCell>
        <mxCell id="dGy5EHXVqikpUVni0W1R-25" value="режиссёры" style="swimlane;fontStyle=0;childLayout=stackLayout;horizontal=1;startSize=30;horizontalStack=0;resizeParent=1;resizeParentMax=0;resizeLast=0;collapsible=1;marginBottom=0;fillColor=#ffe6cc;strokeColor=#d79b00;" vertex="1" parent="1">
          <mxGeometry x="-120" y="560" width="170" height="110" as="geometry" />
        </mxCell>
        <mxCell id="dGy5EHXVqikpUVni0W1R-71" value="&lt;ol&gt;&lt;li&gt;*код режиссера(int)&lt;/li&gt;&lt;li&gt;имя(varchar)&lt;/li&gt;&lt;li&gt;фамилия(varchar)&lt;/li&gt;&lt;/ol&gt;" style="text;strokeColor=none;fillColor=none;html=1;whiteSpace=wrap;verticalAlign=middle;overflow=hidden;" vertex="1" parent="dGy5EHXVqikpUVni0W1R-25">
          <mxGeometry y="30" width="170" height="80" as="geometry" />
        </mxCell>
        <mxCell id="dGy5EHXVqikpUVni0W1R-29" value="страны" style="swimlane;fontStyle=0;childLayout=stackLayout;horizontal=1;startSize=30;horizontalStack=0;resizeParent=1;resizeParentMax=0;resizeLast=0;collapsible=1;marginBottom=0;fillColor=#ffe6cc;strokeColor=#d79b00;" vertex="1" parent="1">
          <mxGeometry x="700" y="620" width="210" height="110" as="geometry" />
        </mxCell>
        <mxCell id="dGy5EHXVqikpUVni0W1R-75" value="&lt;ol&gt;&lt;li&gt;*код страны(int)&lt;/li&gt;&lt;li&gt;название страны(varchar)&lt;/li&gt;&lt;/ol&gt;" style="text;strokeColor=none;fillColor=none;html=1;whiteSpace=wrap;verticalAlign=middle;overflow=hidden;" vertex="1" parent="dGy5EHXVqikpUVni0W1R-29">
          <mxGeometry y="30" width="210" height="80" as="geometry" />
        </mxCell>
        <mxCell id="dGy5EHXVqikpUVni0W1R-33" value="актёрский состав" style="swimlane;fontStyle=0;childLayout=stackLayout;horizontal=1;startSize=30;horizontalStack=0;resizeParent=1;resizeParentMax=0;resizeLast=0;collapsible=1;marginBottom=0;fillColor=#ffe6cc;strokeColor=#d79b00;" vertex="1" parent="1">
          <mxGeometry x="700" y="220" width="140" height="90" as="geometry" />
        </mxCell>
        <mxCell id="dGy5EHXVqikpUVni0W1R-77" value="&lt;ol&gt;&lt;li&gt;код фильма(int)&lt;/li&gt;&lt;li&gt;код актёра(int)&lt;/li&gt;&lt;/ol&gt;" style="text;strokeColor=none;fillColor=none;html=1;whiteSpace=wrap;verticalAlign=middle;overflow=hidden;" vertex="1" parent="dGy5EHXVqikpUVni0W1R-33">
          <mxGeometry y="30" width="140" height="60" as="geometry" />
        </mxCell>
        <mxCell id="dGy5EHXVqikpUVni0W1R-37" value="актёры" style="swimlane;fontStyle=0;childLayout=stackLayout;horizontal=1;startSize=30;horizontalStack=0;resizeParent=1;resizeParentMax=0;resizeLast=0;collapsible=1;marginBottom=0;fillColor=#ffe6cc;strokeColor=#d79b00;" vertex="1" parent="1">
          <mxGeometry x="950" y="210" width="160" height="110" as="geometry" />
        </mxCell>
        <mxCell id="dGy5EHXVqikpUVni0W1R-78" value="&lt;ol&gt;&lt;li&gt;*код актёра(int)&lt;/li&gt;&lt;li&gt;имя(varchar)&lt;/li&gt;&lt;li&gt;фамилия(varchar)&lt;/li&gt;&lt;/ol&gt;" style="text;strokeColor=none;fillColor=none;html=1;whiteSpace=wrap;verticalAlign=middle;overflow=hidden;" vertex="1" parent="dGy5EHXVqikpUVni0W1R-37">
          <mxGeometry y="30" width="160" height="80" as="geometry" />
        </mxCell>
        <mxCell id="dGy5EHXVqikpUVni0W1R-44" style="edgeStyle=orthogonalEdgeStyle;rounded=0;orthogonalLoop=1;jettySize=auto;html=1;" edge="1" parent="1" target="dGy5EHXVqikpUVni0W1R-71">
          <mxGeometry relative="1" as="geometry">
            <mxPoint x="330" y="570" as="sourcePoint" />
            <mxPoint x="202.94000000000005" y="653" as="targetPoint" />
            <Array as="points">
              <mxPoint x="265" y="570" />
              <mxPoint x="265" y="603" />
            </Array>
          </mxGeometry>
        </mxCell>
        <mxCell id="dGy5EHXVqikpUVni0W1R-45" style="edgeStyle=orthogonalEdgeStyle;rounded=0;orthogonalLoop=1;jettySize=auto;html=1;entryX=1;entryY=0.363;entryDx=0;entryDy=0;entryPerimeter=0;startArrow=none;" edge="1" parent="1" target="dGy5EHXVqikpUVni0W1R-83">
          <mxGeometry relative="1" as="geometry">
            <mxPoint x="330" y="541" as="sourcePoint" />
            <mxPoint x="201.96000000000004" y="463.99" as="targetPoint" />
          </mxGeometry>
        </mxCell>
        <mxCell id="dGy5EHXVqikpUVni0W1R-46" style="edgeStyle=orthogonalEdgeStyle;rounded=0;orthogonalLoop=1;jettySize=auto;html=1;exitX=0;exitY=0.467;exitDx=0;exitDy=0;exitPerimeter=0;entryX=1;entryY=0.5;entryDx=0;entryDy=0;" edge="1" parent="1" source="dGy5EHXVqikpUVni0W1R-5" target="dGy5EHXVqikpUVni0W1R-69">
          <mxGeometry relative="1" as="geometry">
            <mxPoint x="200" y="329" as="targetPoint" />
            <Array as="points">
              <mxPoint x="280" y="499" />
              <mxPoint x="280" y="250" />
            </Array>
          </mxGeometry>
        </mxCell>
        <mxCell id="dGy5EHXVqikpUVni0W1R-66" style="edgeStyle=orthogonalEdgeStyle;rounded=0;orthogonalLoop=1;jettySize=auto;html=1;exitX=0.5;exitY=0;exitDx=0;exitDy=0;entryX=0.524;entryY=1.012;entryDx=0;entryDy=0;entryPerimeter=0;" edge="1" parent="1" source="dGy5EHXVqikpUVni0W1R-52" target="dGy5EHXVqikpUVni0W1R-5">
          <mxGeometry relative="1" as="geometry" />
        </mxCell>
        <mxCell id="dGy5EHXVqikpUVni0W1R-52" value="видеокассеты" style="swimlane;fontStyle=0;childLayout=stackLayout;horizontal=1;startSize=30;horizontalStack=0;resizeParent=1;resizeParentMax=0;resizeLast=0;collapsible=1;marginBottom=0;fillColor=#ffe6cc;strokeColor=#d79b00;" vertex="1" parent="1">
          <mxGeometry x="340" y="650" width="200" height="170" as="geometry" />
        </mxCell>
        <mxCell id="dGy5EHXVqikpUVni0W1R-73" value="&lt;ol&gt;&lt;li&gt;*код видеокассеты(int)&lt;/li&gt;&lt;li&gt;краткое описание(varchar)&lt;/li&gt;&lt;li&gt;внешний вид(varchar)&lt;/li&gt;&lt;li&gt;код марки(int)&lt;/li&gt;&lt;li&gt;длительность(float)&amp;nbsp;&lt;/li&gt;&lt;li&gt;цена за день(money)&lt;/li&gt;&lt;/ol&gt;" style="text;strokeColor=none;fillColor=none;html=1;whiteSpace=wrap;verticalAlign=middle;overflow=hidden;" vertex="1" parent="dGy5EHXVqikpUVni0W1R-52">
          <mxGeometry y="30" width="200" height="140" as="geometry" />
        </mxCell>
        <mxCell id="dGy5EHXVqikpUVni0W1R-56" value="заказы" style="swimlane;fontStyle=0;childLayout=stackLayout;horizontal=1;startSize=30;horizontalStack=0;resizeParent=1;resizeParentMax=0;resizeLast=0;collapsible=1;marginBottom=0;fillColor=#ffe6cc;strokeColor=#d79b00;" vertex="1" parent="1">
          <mxGeometry x="-30" y="780" width="240" height="190" as="geometry" />
        </mxCell>
        <mxCell id="dGy5EHXVqikpUVni0W1R-72" value="&lt;ol&gt;&lt;li&gt;*код заказа(int)&lt;/li&gt;&lt;li&gt;код видеокассеты(int)&lt;/li&gt;&lt;li&gt;дата выдачи(date)&lt;/li&gt;&lt;li&gt;дата возвращения(date)&lt;/li&gt;&lt;li&gt;стоимость(money)&lt;/li&gt;&lt;li&gt;фамилия заказчика(varchar)&lt;/li&gt;&lt;li&gt;имя заказчика(varchar)&lt;/li&gt;&lt;li&gt;паспорт заказчика(int)&lt;/li&gt;&lt;li&gt;телефон заказчика(int)&lt;/li&gt;&lt;/ol&gt;" style="text;strokeColor=none;fillColor=none;html=1;whiteSpace=wrap;verticalAlign=middle;overflow=hidden;" vertex="1" parent="dGy5EHXVqikpUVni0W1R-56">
          <mxGeometry y="30" width="240" height="160" as="geometry" />
        </mxCell>
        <mxCell id="dGy5EHXVqikpUVni0W1R-60" style="edgeStyle=orthogonalEdgeStyle;rounded=0;orthogonalLoop=1;jettySize=auto;html=1;entryX=0;entryY=0.65;entryDx=0;entryDy=0;entryPerimeter=0;" edge="1" parent="1" source="dGy5EHXVqikpUVni0W1R-72" target="dGy5EHXVqikpUVni0W1R-73">
          <mxGeometry relative="1" as="geometry">
            <mxPoint x="200" y="801" as="sourcePoint" />
            <mxPoint x="366.6400000000001" y="771.3299999999999" as="targetPoint" />
          </mxGeometry>
        </mxCell>
        <mxCell id="dGy5EHXVqikpUVni0W1R-61" value="марка видеокассеты" style="swimlane;fontStyle=0;childLayout=stackLayout;horizontal=1;startSize=30;horizontalStack=0;resizeParent=1;resizeParentMax=0;resizeLast=0;collapsible=1;marginBottom=0;fillColor=#ffe6cc;strokeColor=#d79b00;" vertex="1" parent="1">
          <mxGeometry x="640" y="860" width="190" height="110" as="geometry" />
        </mxCell>
        <mxCell id="dGy5EHXVqikpUVni0W1R-74" value="&lt;ol&gt;&lt;li&gt;код марки(int)&lt;/li&gt;&lt;li&gt;название марки(varchar)&lt;/li&gt;&lt;/ol&gt;" style="text;strokeColor=none;fillColor=none;html=1;whiteSpace=wrap;verticalAlign=middle;overflow=hidden;" vertex="1" parent="dGy5EHXVqikpUVni0W1R-61">
          <mxGeometry y="30" width="190" height="80" as="geometry" />
        </mxCell>
        <mxCell id="dGy5EHXVqikpUVni0W1R-67" value="пункт проката видеозаписей" style="text;strokeColor=none;fillColor=none;html=1;fontSize=24;fontStyle=1;verticalAlign=middle;align=center;" vertex="1" parent="1">
          <mxGeometry x="375" y="130" width="100" height="40" as="geometry" />
        </mxCell>
        <mxCell id="dGy5EHXVqikpUVni0W1R-81" style="edgeStyle=orthogonalEdgeStyle;rounded=0;orthogonalLoop=1;jettySize=auto;html=1;exitX=1;exitY=0.75;exitDx=0;exitDy=0;entryX=0;entryY=0.5;entryDx=0;entryDy=0;" edge="1" parent="1" source="dGy5EHXVqikpUVni0W1R-73" target="dGy5EHXVqikpUVni0W1R-74">
          <mxGeometry relative="1" as="geometry" />
        </mxCell>
        <mxCell id="dGy5EHXVqikpUVni0W1R-82" style="edgeStyle=orthogonalEdgeStyle;rounded=0;orthogonalLoop=1;jettySize=auto;html=1;exitX=1;exitY=0.25;exitDx=0;exitDy=0;" edge="1" parent="1" source="dGy5EHXVqikpUVni0W1R-5" target="dGy5EHXVqikpUVni0W1R-76">
          <mxGeometry relative="1" as="geometry" />
        </mxCell>
        <mxCell id="dGy5EHXVqikpUVni0W1R-84" style="edgeStyle=orthogonalEdgeStyle;rounded=0;orthogonalLoop=1;jettySize=auto;html=1;exitX=1;exitY=0.75;exitDx=0;exitDy=0;entryX=0;entryY=0.5;entryDx=0;entryDy=0;" edge="1" parent="1" source="dGy5EHXVqikpUVni0W1R-5" target="dGy5EHXVqikpUVni0W1R-75">
          <mxGeometry relative="1" as="geometry" />
        </mxCell>
        <mxCell id="dGy5EHXVqikpUVni0W1R-92" style="edgeStyle=orthogonalEdgeStyle;rounded=0;orthogonalLoop=1;jettySize=auto;html=1;exitX=1;exitY=0.5;exitDx=0;exitDy=0;" edge="1" parent="1" source="dGy5EHXVqikpUVni0W1R-77" target="dGy5EHXVqikpUVni0W1R-78">
          <mxGeometry relative="1" as="geometry" />
        </mxCell>
        <mxCell id="dGy5EHXVqikpUVni0W1R-93" style="edgeStyle=orthogonalEdgeStyle;rounded=0;orthogonalLoop=1;jettySize=auto;html=1;exitX=0;exitY=0.25;exitDx=0;exitDy=0;entryX=0.75;entryY=0;entryDx=0;entryDy=0;startArrow=none;" edge="1" parent="1" source="dGy5EHXVqikpUVni0W1R-77" target="dGy5EHXVqikpUVni0W1R-2">
          <mxGeometry relative="1" as="geometry" />
        </mxCell>
        <mxCell id="dGy5EHXVqikpUVni0W1R-94" value="∞" style="text;whiteSpace=wrap;html=1;" vertex="1" parent="1">
          <mxGeometry x="320" y="750" width="30" height="30" as="geometry" />
        </mxCell>
        <mxCell id="dGy5EHXVqikpUVni0W1R-95" value="∞" style="text;whiteSpace=wrap;html=1;" vertex="1" parent="1">
          <mxGeometry x="540" y="760" width="30" height="30" as="geometry" />
        </mxCell>
        <mxCell id="dGy5EHXVqikpUVni0W1R-96" value="∞" style="text;whiteSpace=wrap;html=1;" vertex="1" parent="1">
          <mxGeometry x="310" y="570" width="30" height="30" as="geometry" />
        </mxCell>
        <mxCell id="dGy5EHXVqikpUVni0W1R-97" value="∞" style="text;whiteSpace=wrap;html=1;" vertex="1" parent="1">
          <mxGeometry x="310" y="520" width="30" height="30" as="geometry" />
        </mxCell>
        <mxCell id="dGy5EHXVqikpUVni0W1R-99" value="∞" style="text;whiteSpace=wrap;html=1;" vertex="1" parent="1">
          <mxGeometry x="680" y="240" width="30" height="30" as="geometry" />
        </mxCell>
        <mxCell id="dGy5EHXVqikpUVni0W1R-102" value="∞" style="text;whiteSpace=wrap;html=1;" vertex="1" parent="1">
          <mxGeometry x="550" y="440" width="30" height="30" as="geometry" />
        </mxCell>
        <mxCell id="dGy5EHXVqikpUVni0W1R-103" value="∞" style="text;whiteSpace=wrap;html=1;" vertex="1" parent="1">
          <mxGeometry x="550" y="520" width="30" height="30" as="geometry" />
        </mxCell>
        <mxCell id="dGy5EHXVqikpUVni0W1R-105" value="∞" style="text;whiteSpace=wrap;html=1;" vertex="1" parent="1">
          <mxGeometry x="840" y="250" width="30" height="30" as="geometry" />
        </mxCell>
        <mxCell id="dGy5EHXVqikpUVni0W1R-107" value="1" style="text;html=1;resizable=0;autosize=1;align=center;verticalAlign=middle;points=[];fillColor=none;strokeColor=none;rounded=0;" vertex="1" parent="1">
          <mxGeometry x="90" y="225" width="20" height="20" as="geometry" />
        </mxCell>
        <mxCell id="dGy5EHXVqikpUVni0W1R-108" value="1" style="text;html=1;resizable=0;autosize=1;align=center;verticalAlign=middle;points=[];fillColor=none;strokeColor=none;rounded=0;" vertex="1" parent="1">
          <mxGeometry x="50" y="410" width="20" height="20" as="geometry" />
        </mxCell>
        <mxCell id="dGy5EHXVqikpUVni0W1R-109" value="1" style="text;html=1;resizable=0;autosize=1;align=center;verticalAlign=middle;points=[];fillColor=none;strokeColor=none;rounded=0;" vertex="1" parent="1">
          <mxGeometry x="60" y="580" width="20" height="20" as="geometry" />
        </mxCell>
        <mxCell id="dGy5EHXVqikpUVni0W1R-110" value="1" style="text;html=1;resizable=0;autosize=1;align=center;verticalAlign=middle;points=[];fillColor=none;strokeColor=none;rounded=0;" vertex="1" parent="1">
          <mxGeometry x="210" y="865" width="20" height="20" as="geometry" />
        </mxCell>
        <mxCell id="dGy5EHXVqikpUVni0W1R-113" value="1" style="text;html=1;resizable=0;autosize=1;align=center;verticalAlign=middle;points=[];fillColor=none;strokeColor=none;rounded=0;" vertex="1" parent="1">
          <mxGeometry x="620" y="905" width="20" height="20" as="geometry" />
        </mxCell>
        <mxCell id="dGy5EHXVqikpUVni0W1R-114" value="1" style="text;html=1;resizable=0;autosize=1;align=center;verticalAlign=middle;points=[];fillColor=none;strokeColor=none;rounded=0;" vertex="1" parent="1">
          <mxGeometry x="680" y="670" width="20" height="20" as="geometry" />
        </mxCell>
        <mxCell id="dGy5EHXVqikpUVni0W1R-115" value="1" style="text;html=1;resizable=0;autosize=1;align=center;verticalAlign=middle;points=[];fillColor=none;strokeColor=none;rounded=0;" vertex="1" parent="1">
          <mxGeometry x="670" y="490" width="20" height="20" as="geometry" />
        </mxCell>
        <mxCell id="dGy5EHXVqikpUVni0W1R-116" value="1" style="text;html=1;resizable=0;autosize=1;align=center;verticalAlign=middle;points=[];fillColor=none;strokeColor=none;rounded=0;" vertex="1" parent="1">
          <mxGeometry x="930" y="255" width="20" height="20" as="geometry" />
        </mxCell>
      </root>
    </mxGraphModel>
  </diagram>
</mxfile>
